<svg width="25" height="13" viewBox="0 0 25 13" fill="none" xmlns="http://www.w3.org/2000/svg">
<path d="M2 1C6 9.5 19 10 23 1" stroke="#98A2B3" stroke-width="1.5" stroke-linecap="round"/>
<path d="M0.544613 6.43661C0.430592 6.68812 0.542044 6.98443 0.793547 7.09845C1.04505 7.21247 1.34137 7.10102 1.45539 6.84952L0.544613 6.43661ZM1.45539 6.84952L3.10701 3.20642L2.19623 2.79352L0.544613 6.43661L1.45539 6.84952Z" fill="#98A2B3"/>
<path d="M24.7083 5.43661C24.8223 5.68812 24.7109 5.98443 24.4594 6.09845C24.2079 6.21247 23.9116 6.10102 23.7975 5.84952L24.7083 5.43661ZM23.7975 5.84952L22.1459 2.20642L23.0567 1.79352L24.7083 5.43661L23.7975 5.84952Z" fill="#98A2B3"/>
<path d="M5.52516 10.6422C5.43867 10.9045 5.58115 11.1872 5.8434 11.2737C6.10565 11.3602 6.38835 11.2177 6.47484 10.9554L5.52516 10.6422ZM6.47484 10.9554L7.72765 7.15668L6.77797 6.84348L5.52516 10.6422L6.47484 10.9554Z" fill="#98A2B3"/>
<path d="M19.7278 9.64223C19.8143 9.90448 19.6718 10.1872 19.4095 10.2737C19.1473 10.3602 18.8646 10.2177 18.7781 9.95543L19.7278 9.64223ZM18.7781 9.95543L17.5253 6.15668L18.475 5.84348L19.7278 9.64223L18.7781 9.95543Z" fill="#98A2B3"/>
<path d="M12.1265 11.8994C12.1265 12.1756 12.3503 12.3994 12.6265 12.3994C12.9026 12.3994 13.1265 12.1756 13.1265 11.8994L12.1265 11.8994ZM13.1265 11.8994L13.1265 7.89941L12.1265 7.89941L12.1265 11.8994L13.1265 11.8994Z" fill="#98A2B3"/>
</svg>
